<?xml version="1.0" encoding="UTF-8"?>
<svg xmlns="http://www.w3.org/2000/svg" xmlns:xlink="http://www.w3.org/1999/xlink" width="px" height="px" viewBox="0 0 400 400" version="1.1">
<g id="surface1">
<path style=" stroke:none;fill-rule:evenodd;fill:rgb(0%,0%,0%);fill-opacity:1;" d="M 316.765625 199.96875 C 316.765625 232.257812 305.402344 259.832031 282.648438 282.585938 C 259.863281 305.371094 232.324219 316.765625 200.03125 316.765625 C 167.871094 316.765625 140.332031 305.402344 117.511719 282.585938 C 94.726562 259.832031 83.269531 232.257812 83.269531 199.96875 C 83.269531 167.773438 94.695312 140.332031 117.511719 117.480469 C 140.398438 94.695312 167.902344 83.234375 200.03125 83.234375 C 232.324219 83.234375 259.863281 94.660156 282.648438 117.480469 C 305.371094 140.332031 316.765625 167.773438 316.765625 199.96875 Z M 53.289062 178.449219 C 63.542969 171.453125 68.683594 162.304688 67.804688 141.375 L 67.804688 87.566406 C 67.707031 80.046875 54.070312 79.132812 53.386719 87.566406 L 52.863281 131.21875 C 52.832031 139.386719 40.558594 139.648438 40.59375 131.21875 L 41.113281 86.066406 C 40.949219 77.996094 27.929688 77.179688 27.765625 86.066406 C 27.765625 98.601562 27.246094 118.683594 27.246094 131.21875 C 27.898438 139.128906 16.503906 140.167969 16.796875 131.21875 L 17.316406 86.359375 C 17.023438 80.273438 10.320312 78.09375 5.761719 80.957031 C 0.910156 84.050781 1.886719 90.265625 1.691406 95.507812 L 0 147.003906 C 0.261719 161.980469 4.199219 174.152344 15.917969 179.328125 C 17.707031 180.109375 20.183594 180.730469 23.046875 181.152344 L 19.011719 306.738281 C 18.78125 314.191406 24.871094 320.28125 32 320.28125 L 33.625 320.28125 C 41.667969 320.28125 48.46875 313.410156 48.242188 305.046875 L 44.695312 181.121094 C 48.4375 180.535156 51.53125 179.65625 53.289062 178.449219 Z M 347.460938 302.960938 L 347.265625 190.167969 C 307.714844 167.316406 320.3125 79.265625 359.894531 79.753906 C 408.007812 80.304688 413.703125 178.972656 372.332031 189.8125 L 375.390625 303.417969 C 375.976562 324.902344 347.492188 326.886719 347.460938 302.960938 Z M 268 199.871094 C 268 218.683594 261.394531 234.734375 248.078125 248.046875 C 234.796875 261.296875 218.75 267.96875 199.933594 267.96875 C 181.25 267.96875 165.203125 261.296875 151.921875 248.046875 C 138.640625 234.734375 132 218.683594 132 199.871094 C 132 181.183594 138.640625 165.136719 151.921875 151.886719 C 165.234375 138.640625 181.25 131.964844 199.933594 131.964844 C 237.726562 132 268 162.042969 268 199.871094 Z M 283.917969 199.871094 C 283.917969 176.757812 275.78125 157 259.40625 140.625 C 243.035156 124.25 223.210938 116.113281 199.933594 116.113281 C 176.726562 116.113281 156.964844 124.25 140.691406 140.625 C 124.316406 157 116.082031 176.757812 116.082031 199.871094 C 116.082031 223.046875 124.316406 242.804688 140.691406 259.246094 C 156.964844 275.652344 176.726562 283.886719 199.933594 283.886719 C 223.175781 283.886719 243 275.652344 259.40625 259.246094 C 275.75 242.773438 283.917969 223.015625 283.917969 199.871094 Z M 283.917969 199.871094 "/>
</g>
</svg>
