<?xml version="1.0" encoding="UTF-8"?>
<svg xmlns="http://www.w3.org/2000/svg" xmlns:xlink="http://www.w3.org/1999/xlink" width="px" height="px" viewBox="0 0 400 400" version="1.1">
<g id="surface1">
<path style=" stroke:none;fill-rule:evenodd;fill:rgb(0%,0%,0%);fill-opacity:1;" d="M 136.332031 42.765625 C 131.734375 50.867188 127.566406 60.898438 123.601562 72.765625 C 92.964844 155.714844 45.582031 277.066406 22.699219 335.332031 C 12.316406 361.785156 37.617188 388.265625 64.535156 379.117188 C 123.132812 359.132812 244.367188 318.117188 327.25 291.984375 L 327.5 291.917969 C 339.398438 287.949219 349.433594 283.882812 357.5 279.417969 C 365.449219 274.964844 372.582031 269.5 377.382812 262.25 C 388.316406 245.683594 382.25 228.332031 375.015625 214.917969 C 329.515625 130.582031 272.632812 71.300781 201.617188 26.167969 C 194.832031 21.867188 187.234375 18.199219 179.035156 17.050781 C 170.21875 15.726562 161.230469 17.75 153.832031 22.714844 C 146.550781 27.535156 140.949219 34.683594 136.332031 42.765625 Z M 251.515625 151.535156 C 225.183594 123.417969 196.484375 99.648438 159.25 72.199219 C 161.367188 66.917969 163.382812 62.648438 165.316406 59.25 C 168.515625 53.617188 170.949219 51.351562 172.214844 50.515625 C 172.984375 50.015625 173.382812 49.917969 174.382812 50.050781 C 175.964844 50.285156 178.933594 51.25 183.734375 54.300781 C 249.898438 96.332031 302.851562 151.351562 345.683594 230.75 C 351.648438 241.800781 349.714844 243.714844 349.566406 243.867188 L 349.566406 243.882812 C 348.867188 244.933594 346.816406 247.183594 341.265625 250.285156 C 338.101562 252.050781 334.148438 253.882812 329.265625 255.832031 C 301.617188 211.882812 277.949219 179.734375 251.515625 151.535156 Z M 227.183594 174.316406 C 250.351562 199.015625 271.632812 227.417969 296.699219 266.714844 C 215.015625 292.867188 107.699219 329.183594 53.765625 347.550781 L 53.734375 347.550781 L 53.734375 347.515625 C 74.785156 293.917969 116.714844 186.550781 147.25 104.816406 C 179.800781 129.167969 204.566406 150.167969 227.199219 174.316406 Z M 166.667969 216.667969 C 185.074219 216.667969 200 201.742188 200 183.332031 C 200 164.925781 185.074219 150 166.667969 150 C 148.257812 150 133.332031 164.925781 133.332031 183.332031 C 133.332031 201.742188 148.257812 216.667969 166.667969 216.667969 Z M 166.667969 266.667969 C 166.667969 285.074219 151.742188 300 133.332031 300 C 114.925781 300 100 285.074219 100 266.667969 C 100 248.257812 114.925781 233.332031 133.332031 233.332031 C 151.742188 233.332031 166.667969 248.257812 166.667969 266.667969 Z M 216.667969 283.332031 C 235.074219 283.332031 250 268.410156 250 250 C 250 231.589844 235.074219 216.667969 216.667969 216.667969 C 198.257812 216.667969 183.332031 231.589844 183.332031 250 C 183.332031 268.410156 198.257812 283.332031 216.667969 283.332031 Z M 216.667969 283.332031 "/>
</g>
</svg>
