<svg version="1.2" xmlns="http://www.w3.org/2000/svg" viewBox="0 0 32 32" width="32" height="32">
	<title>whatsapp_icon-svg</title>
	<defs>
		<linearGradient id="g1" x2="1" gradientUnits="userSpaceOnUse" gradientTransform="matrix(-22.5,21,-18.38,-19.693,24.5,6)">
			<stop offset="0" stop-color="#5bd066"/>
			<stop offset="1" stop-color="#27b43e"/>
		</linearGradient>
	</defs>
	<style>
		.s0 { fill: #bfc8d0 } 
		.s1 { fill: url(#g1) } 
		.s2 { fill: #ffffff } 
	</style>
	<path id="Layer" fill-rule="evenodd" class="s0" d="m12.3 29.9q-0.9-0.1-1.7-0.3-0.9-0.2-1.7-0.6-0.8-0.3-1.6-0.7l-7.3 1.7 1.8-7.1c-1.1-2-1.8-4.4-1.8-6.9 0-7.7 6.3-14 14-14 7.7 0 14 6.3 14 14 0 7.7-6.3 14-14 14q-0.9 0-1.7-0.1zm1.7-2.1c6.5 0 11.8-5.3 11.8-11.8 0-6.5-5.3-11.8-11.8-11.8-6.5 0-11.8 5.3-11.8 11.8 0 2.5 0.7 4.9 2.1 6.8l-1.1 4 4.1-1q0.7 0.5 1.5 0.9 0.8 0.3 1.7 0.6 0.8 0.3 1.7 0.4 0.9 0.1 1.8 0.1z"/>
	<path id="Layer" class="s1" d="m26 15c0 6.6-5.4 12-12 12-2.5 0-4.9-0.8-6.8-2.1l-4.1 1 1.1-4q-0.6-0.8-1-1.6-0.4-0.8-0.6-1.7-0.3-0.9-0.5-1.8-0.1-0.9-0.1-1.8c0-6.6 5.4-12 12-12 6.6 0 12 5.4 12 12z"/>
	<path id="Layer" fill-rule="evenodd" class="s2" d="m12.3 28.9q-0.9-0.1-1.7-0.3-0.9-0.2-1.7-0.6-0.8-0.3-1.6-0.7l-7.3 1.7 1.8-7.1c-1.1-2-1.8-4.4-1.8-6.9 0-7.7 6.3-14 14-14 7.7 0 14 6.3 14 14 0 7.7-6.3 14-14 14q-0.9 0-1.7-0.1zm1.7-2.1c6.5 0 11.8-5.3 11.8-11.8 0-6.5-5.3-11.8-11.8-11.8-6.5 0-11.8 5.3-11.8 11.8 0 2.5 0.7 4.9 2.1 6.8l-1.1 4 4.1-1q0.7 0.5 1.5 0.9 0.8 0.3 1.7 0.6 0.8 0.3 1.7 0.4 0.9 0.1 1.8 0.1z"/>
	<path id="Layer" class="s2" d="m10.5 8.5c-0.3-0.7-0.8-0.6-1.4-0.6-0.9 0-2.3 1.1-2.3 3.2 0 1.6 0.7 3.5 3.2 6.2 2.4 2.7 5.6 4.1 8.2 4 2.7 0 3.2-2.3 3.2-3.1 0-0.3-0.2-0.5-0.3-0.5-0.9-0.4-2.6-1.2-3-1.4-0.3-0.1-0.5 0.1-0.7 0.2-0.3 0.3-1 1.3-1.2 1.5-0.2 0.2-0.6 0.1-0.7 0-0.6-0.2-2-0.8-3.1-2-1.5-1.3-1.5-1.8-1.8-2.2-0.2-0.4-0.1-0.6 0-0.7 0.3-0.3 0.7-0.8 0.9-1.1 0.2-0.3 0.1-0.7 0-0.9-0.4-1.1-0.7-2.1-1-2.6z"/>
</svg>